<mxfile host="app.diagrams.net" modified="2024-02-14T09:56:41.416Z" agent="Mozilla/5.0 (Macintosh; Intel Mac OS X 10.15; rv:122.0) Gecko/20100101 Firefox/122.0" etag="sutIXzdbD9RjGzH0JcrK" version="23.1.4" type="github">
  <diagram name="Page-1" id="dE6yGRrycPSdIeFdvO5s">
    <mxGraphModel dx="3992" dy="1718" grid="1" gridSize="10" guides="1" tooltips="1" connect="1" arrows="1" fold="1" page="1" pageScale="1" pageWidth="827" pageHeight="1169" math="0" shadow="0">
      <root>
        <mxCell id="0" />
        <mxCell id="1" parent="0" />
        <mxCell id="hkPZR-MXZNHqxhCfoVSz-6" value="" style="rounded=0;whiteSpace=wrap;html=1;" vertex="1" parent="1">
          <mxGeometry x="45" y="240" width="115" height="100" as="geometry" />
        </mxCell>
        <mxCell id="hkPZR-MXZNHqxhCfoVSz-1" value="" style="rounded=0;whiteSpace=wrap;html=1;fillColor=#C9C9C9;" vertex="1" parent="1">
          <mxGeometry x="30" y="220" width="150" height="730" as="geometry" />
        </mxCell>
        <mxCell id="hkPZR-MXZNHqxhCfoVSz-2" value="ER Studio" style="rounded=0;whiteSpace=wrap;html=1;" vertex="1" parent="1">
          <mxGeometry x="45" y="390" width="120" height="60" as="geometry" />
        </mxCell>
        <mxCell id="hkPZR-MXZNHqxhCfoVSz-3" value="Other logical metadata sources" style="rounded=0;whiteSpace=wrap;html=1;" vertex="1" parent="1">
          <mxGeometry x="60" y="430" width="110" height="50" as="geometry" />
        </mxCell>
        <mxCell id="hkPZR-MXZNHqxhCfoVSz-8" value="" style="rounded=0;whiteSpace=wrap;html=1;strokeColor=default;shadow=1;" vertex="1" parent="1">
          <mxGeometry x="45" y="230" width="120" height="150" as="geometry" />
        </mxCell>
        <mxCell id="hkPZR-MXZNHqxhCfoVSz-4" value="Git" style="verticalLabelPosition=bottom;html=1;verticalAlign=top;align=center;strokeColor=none;fillColor=#00BEF2;shape=mxgraph.azure.git_repository;" vertex="1" parent="1">
          <mxGeometry x="80" y="250" width="50" height="50" as="geometry" />
        </mxCell>
        <mxCell id="hkPZR-MXZNHqxhCfoVSz-7" value="Process" style="shape=process;whiteSpace=wrap;html=1;backgroundOutline=1;" vertex="1" parent="1">
          <mxGeometry x="60" y="330" width="80" height="30" as="geometry" />
        </mxCell>
        <mxCell id="hkPZR-MXZNHqxhCfoVSz-10" value="" style="rounded=0;whiteSpace=wrap;html=1;" vertex="1" parent="1">
          <mxGeometry x="35" y="500" width="135" height="150" as="geometry" />
        </mxCell>
        <mxCell id="hkPZR-MXZNHqxhCfoVSz-9" value="Other business metadata sources" style="rounded=0;whiteSpace=wrap;html=1;" vertex="1" parent="1">
          <mxGeometry x="60" y="580" width="102.5" height="60" as="geometry" />
        </mxCell>
        <mxCell id="hkPZR-MXZNHqxhCfoVSz-12" value="" style="rounded=0;whiteSpace=wrap;html=1;" vertex="1" parent="1">
          <mxGeometry x="45" y="660" width="120" height="60" as="geometry" />
        </mxCell>
        <mxCell id="hkPZR-MXZNHqxhCfoVSz-13" value="UI User" style="shape=umlActor;verticalLabelPosition=bottom;verticalAlign=top;html=1;outlineConnect=0;" vertex="1" parent="1">
          <mxGeometry x="93.75" y="670" width="12.5" height="30" as="geometry" />
        </mxCell>
        <mxCell id="hkPZR-MXZNHqxhCfoVSz-17" value="" style="rounded=0;whiteSpace=wrap;html=1;" vertex="1" parent="1">
          <mxGeometry x="42.5" y="760" width="120" height="60" as="geometry" />
        </mxCell>
        <mxCell id="hkPZR-MXZNHqxhCfoVSz-14" value="Process" style="shape=process;whiteSpace=wrap;html=1;backgroundOutline=1;" vertex="1" parent="1">
          <mxGeometry x="65" y="770" width="80" height="30" as="geometry" />
        </mxCell>
        <mxCell id="hkPZR-MXZNHqxhCfoVSz-22" value="" style="rounded=0;whiteSpace=wrap;html=1;" vertex="1" parent="1">
          <mxGeometry x="42.5" y="867.2" width="120" height="60" as="geometry" />
        </mxCell>
        <mxCell id="hkPZR-MXZNHqxhCfoVSz-20" value="" style="aspect=fixed;sketch=0;html=1;dashed=0;whitespace=wrap;fillColor=#2875E2;strokeColor=#ffffff;points=[[0.005,0.63,0],[0.1,0.2,0],[0.9,0.2,0],[0.5,0,0],[0.995,0.63,0],[0.72,0.99,0],[0.5,1,0],[0.28,0.99,0]];shape=mxgraph.kubernetes.icon2;prIcon=api" vertex="1" parent="1">
          <mxGeometry x="65" y="880" width="22.5" height="21.6" as="geometry" />
        </mxCell>
        <mxCell id="hkPZR-MXZNHqxhCfoVSz-23" value="API" style="text;html=1;align=center;verticalAlign=middle;whiteSpace=wrap;rounded=0;" vertex="1" parent="1">
          <mxGeometry x="46.25" y="897.2" width="60" height="30" as="geometry" />
        </mxCell>
        <mxCell id="hkPZR-MXZNHqxhCfoVSz-24" value="" style="image;sketch=0;aspect=fixed;html=1;points=[];align=center;fontSize=12;image=img/lib/mscae/Data_Lake_Store.svg;" vertex="1" parent="1">
          <mxGeometry x="119.23" y="882.7" width="20.77" height="16.2" as="geometry" />
        </mxCell>
        <mxCell id="hkPZR-MXZNHqxhCfoVSz-25" value="Mesh Svcs" style="text;html=1;align=center;verticalAlign=middle;whiteSpace=wrap;rounded=0;" vertex="1" parent="1">
          <mxGeometry x="96.25" y="897.2" width="73.75" height="30" as="geometry" />
        </mxCell>
        <mxCell id="hkPZR-MXZNHqxhCfoVSz-26" value="BDP" style="text;html=1;align=center;verticalAlign=middle;whiteSpace=wrap;rounded=0;" vertex="1" parent="1">
          <mxGeometry x="75" y="540" width="60" height="30" as="geometry" />
        </mxCell>
        <mxCell id="hkPZR-MXZNHqxhCfoVSz-27" value="" style="endArrow=none;html=1;rounded=0;" edge="1" parent="1">
          <mxGeometry width="50" height="50" relative="1" as="geometry">
            <mxPoint x="60" y="610" as="sourcePoint" />
            <mxPoint x="110" y="530" as="targetPoint" />
            <Array as="points">
              <mxPoint x="50" y="620" />
              <mxPoint x="50" y="530" />
            </Array>
          </mxGeometry>
        </mxCell>
        <mxCell id="hkPZR-MXZNHqxhCfoVSz-28" value="CDE&#39;s" style="text;html=1;align=center;verticalAlign=middle;whiteSpace=wrap;rounded=0;" vertex="1" parent="1">
          <mxGeometry x="99.62" y="520" width="60" height="30" as="geometry" />
        </mxCell>
        <mxCell id="hkPZR-MXZNHqxhCfoVSz-33" value="" style="endArrow=classic;html=1;rounded=0;exitX=0.447;exitY=0.653;exitDx=0;exitDy=0;exitPerimeter=0;" edge="1" parent="1" source="hkPZR-MXZNHqxhCfoVSz-4">
          <mxGeometry width="50" height="50" relative="1" as="geometry">
            <mxPoint x="-20" y="280" as="sourcePoint" />
            <mxPoint x="65" y="897.2" as="targetPoint" />
            <Array as="points">
              <mxPoint x="-40" y="283" />
              <mxPoint x="-40" y="900" />
            </Array>
          </mxGeometry>
        </mxCell>
      </root>
    </mxGraphModel>
  </diagram>
</mxfile>
